<?xml version="1.0" encoding="utf-8"?>
<svg version="1.1" id="b2668a30-5ded-4441-a025-50ead40e4c3c"
	 xmlns="http://www.w3.org/2000/svg" xmlns:xlink="http://www.w3.org/1999/xlink" x="0px" y="0px" viewBox="0 0 2000 2000"
	 style="enable-background:new 0 0 2000 2000;" xml:space="preserve">
<style type="text/css">
	.st0{fill:#6a6c75;}
</style>
<title>ChilliCream Logo</title>
<path class="st0" d="M1000,0C447.7,0,0,447.7,0,1000c0,507.4,378,926.6,867.7,991.3c-61.8-95.7-101.3-204.4-136.6-312.1
	c-43.2-132-68.8-268.9-92.8-405.5c-2.1-12.1-7.6-57.8-22.6-61.9c-16.3-4.5-34.3,33.8-45,42.6c-17.9,14.7-37.9,26.2-57.8,37.9
	c-13.6,8-28.1,18.8-43.4,25.2c-18.5,11.7-41.7,16.5-64.2,17.5c-37.4,1.8-79.4,1-113.8-15.3c-35.5-16.9-60.6-52.4-86.5-80.8
	c-16.3-17.9-32.7-35.8-49-53.8c-12.8-14-29-38-50.7-31.2c-9.5,3-17.2,0.2-22.3-5.3c-10.2-8-15-23.5-3.4-35.5
	c63.7-65.8,161.4-91.8,248.4-60.5c47,16.9,77.2,47.3,113.4,79.8c32.5,29.1,79.9,37.5,120.9,23.4c13.6-4.7,42.2-15.5,47.4-29.8
	c7.3-19.8-5.1-62.6-6-84.3c-2.6-68.4,1.2-136.8,11.5-204.4l12.5-68c5.4-24.7,11.6-49.1,18.7-73.3c-10.5,0-21.1-0.6-31.5-1.6
	c-10-1-20.8-6.5-22.9-17.5C579.9,614.5,621,558,654.5,508.9c31.1-45.8,70.1-85.7,115.1-117.9c-16-37.8-5-79.3,20.5-110.6
	c21.8-27.2,55.5-44.4,78-52.4c7.8-2.9,15.8-5.4,23.9-7.5c29.7-7.7,60.7-11.4,88.7-24.8c-2.2-3.1-4.6-6.1-7.2-8.9
	c-12.1-12.9-30.5-18.1-41.2-32.2c-23.5-31.1,9.2-60,37.7-68.7c16-4.8,34.1-8,49.4,0.4c16.4,9,25.3,30.9,33.4,46.6c1.6,3,3,6,4.5,9
	c22.7-30.6,53.4-82.2,94.9-72.8c38.3,8.6,71.6,59.7,86,93.5c11,25.9,15.4,53.8,12.2,81.1c43.6,9.5,106.4,32.7,133.3,79.5
	c8.2,15.9,10.5,28.2,10.5,44.6s-6.8,44.1-15.5,63c53.7,20.2,100,57.4,127.8,108.2c14.5,26.8,23.9,56.1,27.5,86.4
	c2.8,22.5,7.7,61.5-8.5,80.3c-9.5,11-26,14-43.3,13.9c2.4,16.4,4.4,32.8,6,49.2l4,68.6c1.4,64-4.2,128-16.7,190.8
	c-5.3,26.5-11.3,53.3-19.7,79.1c-7.3,22.5-18.1,37.8-13.1,63c2.8,13.8,10.6,27.2,23.2,33.6c31.8,16.1,82.2-7.6,102.1-32.8
	c28-35.4,52.4-68.8,89.2-96c63.6-47.1,173.8-89.3,248.5-44.7c18.6,11.1,13,36.5-5.7,43.5c-24.5,9.1-25.6,44.6-26.6,66
	c-1.3,28.1-2.7,56.3-16.6,81.5c-27.4,50-83.6,71.5-136.3,83.3c-58.1,13-120.1,23.6-177.5,2.1c-14.1-5.3-27.3-11-42.2-13.8
	c-15.1-2.8-30.5-3.7-45.2-8.5c-18.9-6.2-36.3-16.4-51-29.8c-5,13.3-10.1,26.6-15.1,39.9c-33.1,87.7-64.2,176.2-90.9,266
	c-31.6,106.4-56.8,215-70.8,325.2c-3.8,29.9-6.7,59.9-8.8,90.1c446.9-99.9,781-498.9,781-976C2000,447.7,1552.3,0,1000,0z"/>
<path class="st0" d="M653,836.3c10.5-0.9,21.1-1.3,31.8-1.3c0.1,0.5,0.1,0.9,0.3,1.4c10.6,33.6,10.4,71.1,26.8,102.8
	c6.5,12.5,15.3,26.9,28.3,33.8c30,16,65.1,13.6,98,14.2c31.8,0.5,65.2,5.6,94.7-9.5c43.3-22.2,49.1-94.6,72.2-131.9
	c1.9-3,3-6.3,3.2-9.8c8.3,0,16.5,0.2,24.8,0.4c12.1-0.1,24,0.3,36,0c8.3-0.2,16.5-0.3,24.8-0.4c0.2,3.5,1.3,6.9,3.2,9.8
	c23,37.3,28.9,109.7,72.2,131.9c29.5,15.2,62.9,10.1,94.7,9.5c32.9-0.6,68,1.8,98-14.2c13-6.9,21.8-21.3,28.3-33.8
	c16.4-31.7,16.2-69.2,26.8-102.8c0.2-0.5,0.2-0.9,0.3-1.4c12.4,0.1,37,1.8,37,1.8s40.8,9,48.5,8c9.2-1.1,17.1-7,20.7-15.5
	c0.2-0.5,1.1-6.5,2.8-18.6c0.8-4.6,1.1-9.3,0.8-14c-0.1-3.2-0.7-6.3-1.8-9.3c-1-2.8-2.7-7.2-7.1-10.2c-4-2.7-8.2-2.9-12.4-3.1
	c-2.4-0.1-4.8,0-7.1,0.4L1450,775c-53.4-0.8-106.9-5.8-160.3-6.5c-69.1-0.9-138.1,0.5-207,4c-7.1,0.3-14.2,0.5-21.3,0.6
	c-13.9-0.3-28.1,0-42.1-0.6c-69-3.4-138-4.8-207-4c-49,0.6-98,4.9-147,6.2h-50.1c-6.2-0.2-12.5-0.5-18.7-0.8
	c-10.8-0.6-17.2,5.6-19.5,13.4c-1.3,2.9-1.9,6.1-1.8,9.3c0.2,11,1.5,21.9,3.6,32.6c2,10.6,13.5,16.5,23.5,15.3L653,836.3z"/>
</svg>
